<svg xmlns="http://www.w3.org/2000/svg" viewBox="0 0 240 240" height="240" width="240">
  <defs>
    <linearGradient y2="100%" x2="100%" y1="0%" x1="0%" id="g1">
      <stop stop-color="#0ea5e9" offset="0%"></stop>
      <stop stop-color="#0284c7" offset="100%"></stop>
    </linearGradient>
  </defs>

  
  <circle stroke-width="4" stroke="#e2e8f0" fill="none" r="108" cy="120" cx="120"></circle>

  
  <g transform="translate(120,120)">
    <circle fill="url(#g1)" r="52"></circle>
    <circle fill="#ffffff" r="38"></circle>
    
    
    <g fill="url(#g1)">
      <rect transform="rotate(0)" rx="4" height="24" width="116" y="-12" x="-58"></rect>
      <rect transform="rotate(30)" rx="4" height="24" width="116" y="-12" x="-58"></rect>
      <rect transform="rotate(60)" rx="4" height="24" width="116" y="-12" x="-58"></rect>
      <rect transform="rotate(90)" rx="4" height="24" width="116" y="-12" x="-58"></rect>
      <rect transform="rotate(120)" rx="4" height="24" width="116" y="-12" x="-58"></rect>
      <rect transform="rotate(150)" rx="4" height="24" width="116" y="-12" x="-58"></rect>
    </g>
  </g>

  
  <g fill="none" stroke-linecap="round" stroke-width="5" stroke="#334155">
    
    <rect rx="12" height="84" width="144" y="78" x="48"></rect>
    
    <line y2="162" x2="96" y1="78" x1="96"></line>
    <line y2="162" x2="144" y1="78" x1="144"></line>
  </g>

  
  <rect fill="#fef08a" rx="3" height="18" width="28" y="90" x="58"></rect>
  <rect fill="#ca8a04" height="3" width="20" y="94" x="62"></rect>
  
  <rect fill="#a7f3d0" rx="3" height="22" width="28" y="98" x="106"></rect>
  <rect fill="#059669" height="3" width="20" y="103" x="110"></rect>
  <rect fill="#059669" height="3" width="20" y="110" x="110"></rect>

  <rect fill="#fecaca" rx="3" height="18" width="28" y="86" x="154"></rect>
  <rect fill="#dc2626" height="10" width="20" y="90" x="158"></rect>

  
  <text text-anchor="middle" fill="#1e293b" font-weight="bold" font-size="22" font-family="system-ui,sans-serif" y="190" x="120">DevOps Kanban</text>
</svg>
